<?xml version="1.0" standalone="no"?>
<svg xmlns="http://www.w3.org/2000/svg" viewBox="0 0 203 29.001" width="203" height="29.001"><path fill="#af7ad5" fill-rule="nonzero" d="M7.56 16.70L7.56 16.70Q6.10 16.70 4.74 16.18Q3.38 15.65 2.32 14.60Q1.25 13.56 0.62 12.00Q0 10.44 0 8.35L0 8.35Q0 6.29 0.62 4.73Q1.25 3.17 2.33 2.12Q3.41 1.08 4.76 0.54Q6.12 0 7.56 0L7.56 0Q9.02 0 10.38 0.52Q11.74 1.03 12.80 2.08Q13.87 3.12 14.50 4.69Q15.12 6.26 15.12 8.35L15.12 8.35Q15.12 10.39 14.50 11.96Q13.87 13.54 12.80 14.58Q11.74 15.62 10.38 16.16Q9.02 16.70 7.56 16.70ZM7.56 16.20L7.56 16.20Q8.88 16.20 9.70 15.49Q10.51 14.78 10.88 13.07Q11.26 11.35 11.26 8.35L11.26 8.35Q11.26 5.33 10.88 3.61Q10.51 1.90 9.70 1.19Q8.88 0.48 7.56 0.48L7.56 0.48Q6.26 0.48 5.45 1.19Q4.63 1.90 4.26 3.61Q3.89 5.33 3.89 8.35L3.89 8.35Q3.89 11.35 4.26 13.07Q4.63 14.78 5.45 15.49Q6.26 16.20 7.56 16.20ZM22.22 16.27L16.13 16.27L16.13 16.03L16.61 15.84Q17.09 15.67 17.24 15.38Q17.40 15.10 17.40 14.64L17.40 14.64L17.40 2.09Q17.40 1.61 17.24 1.32Q17.09 1.03 16.61 0.86L16.61 0.86L16.13 0.67L16.13 0.43L22.22 0.43L22.22 0.67L21.82 0.84Q21.36 1.01 21.19 1.28Q21.02 1.56 21.02 2.04L21.02 2.04L21.02 7.87L26.76 7.87L26.76 2.04Q26.76 1.56 26.60 1.28Q26.45 1.01 25.97 0.84L25.97 0.84L25.54 0.67L25.54 0.43L31.66 0.43L31.66 0.67L31.18 0.86Q30.72 1.03 30.55 1.32Q30.38 1.61 30.38 2.09L30.38 2.09L30.38 14.64Q30.38 15.10 30.55 15.38Q30.72 15.67 31.18 15.84L31.18 15.84L31.66 16.03L31.66 16.27L25.54 16.27L25.54 16.03L25.97 15.89Q26.45 15.70 26.60 15.42Q26.76 15.14 26.76 14.66L26.76 14.66L26.76 8.35L21.02 8.35L21.02 14.66Q21.02 15.55 21.82 15.89L21.82 15.89L22.22 16.03L22.22 16.27ZM41.06 16.27L37.90 16.27L37.90 16.03L38.38 15.86Q39.19 15.60 39.19 14.50L39.19 14.50L39.19 2.21Q39.19 1.73 39.08 1.44Q38.98 1.15 38.52 0.96L38.52 0.96L37.90 0.67L37.90 0.43L42.53 0.43L46.97 12.05L51.14 0.43L55.87 0.43L55.87 0.67L55.49 0.82Q55.03 0.98 54.86 1.28Q54.70 1.58 54.70 2.06L54.70 2.06L54.70 14.62Q54.70 15.10 54.82 15.36Q54.94 15.62 55.39 15.82L55.39 15.82L55.87 16.03L55.87 16.27L49.90 16.27L49.90 16.03L50.40 15.82Q50.86 15.62 50.98 15.36Q51.10 15.10 51.10 14.62L51.10 14.62L51.10 9.22L51.14 2.35L46.13 16.27L44.93 16.27L39.70 2.52L39.77 8.50L39.77 14.54Q39.77 15.07 39.92 15.40Q40.08 15.72 40.54 15.86L40.54 15.86L41.06 16.03L41.06 16.27ZM67.10 16.27L60.36 16.27L60.36 16.03L61.08 15.84Q61.92 15.60 61.92 14.64L61.92 14.64L61.92 10.08L57.96 2.02Q57.74 1.54 57.56 1.30Q57.38 1.06 57.02 0.89L57.02 0.89L56.59 0.67L56.59 0.43L63.02 0.43L63.02 0.67L62.59 0.84Q62.06 1.06 62.02 1.43Q61.97 1.80 62.21 2.35L62.21 2.35L65.04 8.64L68.21 2.11Q68.40 1.73 68.36 1.32Q68.33 0.91 67.85 0.79L67.85 0.79L67.51 0.67L67.51 0.43L70.39 0.43L70.39 0.67L69.94 0.84Q69.48 1.01 69.26 1.31Q69.05 1.61 68.83 2.06L68.83 2.06L65.54 8.98L65.54 14.64Q65.54 15.12 65.72 15.42Q65.90 15.72 66.36 15.84L66.36 15.84L67.10 16.03L67.10 16.27ZM84.58 16.70L84.58 16.70Q82.25 16.70 80.36 15.76Q78.48 14.81 77.38 12.94Q76.27 11.06 76.27 8.35L76.27 8.35Q76.27 6.29 76.94 4.73Q77.62 3.17 78.78 2.11Q79.94 1.06 81.47 0.53Q82.99 0 84.70 0L84.70 0Q86.06 0 87.22 0.31Q88.37 0.62 89.38 1.18L89.38 1.18L89.47 4.13L89.23 4.13L88.03 2.21Q87.79 1.75 87.50 1.38Q87.22 1.01 86.78 0.82L86.78 0.82Q86.42 0.65 86.08 0.56Q85.73 0.48 85.20 0.48L85.20 0.48Q83.81 0.48 82.67 1.22Q81.53 1.97 80.84 3.68Q80.16 5.40 80.16 8.38L80.16 8.38Q80.16 11.33 80.81 13.04Q81.46 14.76 82.57 15.49Q83.69 16.22 85.08 16.22L85.08 16.22Q85.85 16.22 86.30 16.12Q86.76 16.01 87.22 15.79L87.22 15.79Q87.67 15.60 87.91 15.23Q88.15 14.86 88.34 14.42L88.34 14.42L89.40 12.07L89.64 12.07L89.57 15.50Q88.56 16.03 87.31 16.37Q86.06 16.70 84.58 16.70ZM98.30 16.70L98.30 16.70Q96.84 16.70 95.48 16.18Q94.13 15.65 93.06 14.60Q91.99 13.56 91.37 12.00Q90.74 10.44 90.74 8.35L90.74 8.35Q90.74 6.29 91.37 4.73Q91.99 3.17 93.07 2.12Q94.15 1.08 95.51 0.54Q96.86 0 98.30 0L98.30 0Q99.77 0 101.12 0.52Q102.48 1.03 103.55 2.08Q104.62 3.12 105.24 4.69Q105.86 6.26 105.86 8.35L105.86 8.35Q105.86 10.39 105.24 11.96Q104.62 13.54 103.55 14.58Q102.48 15.62 101.12 16.16Q99.77 16.70 98.30 16.70ZM98.30 16.20L98.30 16.20Q99.62 16.20 100.44 15.49Q101.26 14.78 101.63 13.07Q102 11.35 102 8.35L102 8.35Q102 5.33 101.63 3.61Q101.26 1.90 100.44 1.19Q99.62 0.48 98.30 0.48L98.30 0.48Q97.01 0.48 96.19 1.19Q95.38 1.90 95.00 3.61Q94.63 5.33 94.63 8.35L94.63 8.35Q94.63 11.35 95.00 13.07Q95.38 14.78 96.19 15.49Q97.01 16.20 98.30 16.20ZM113.40 16.27L106.87 16.27L106.87 16.03L107.30 15.89Q107.78 15.72 107.95 15.43Q108.12 15.14 108.12 14.66L108.12 14.66Q108.14 13.22 108.14 11.76Q108.14 10.30 108.14 8.83L108.14 8.83L108.14 7.87Q108.14 6.43 108.14 4.98Q108.14 3.53 108.12 2.09L108.12 2.09Q108.12 1.61 107.99 1.32Q107.86 1.03 107.40 0.86L107.40 0.86L106.87 0.67L106.87 0.43L118.49 0.43L118.66 4.42L118.42 4.42L117.05 1.90Q116.81 1.44 116.50 1.18Q116.18 0.91 115.63 0.91L115.63 0.91L111.77 0.91Q111.74 2.62 111.74 4.39Q111.74 6.17 111.74 7.92L111.74 7.92L114.24 7.92Q114.79 7.92 115.06 7.68Q115.32 7.44 115.56 6.98L115.56 6.98L116.06 6.07L116.30 6.07L116.30 10.27L116.06 10.27L115.54 9.36Q115.30 8.93 115.04 8.66Q114.79 8.40 114.24 8.40L114.24 8.40L111.74 8.40Q111.74 10.08 111.74 11.60Q111.74 13.13 111.77 14.59L111.77 14.59Q111.77 15.53 112.68 15.82L112.68 15.82L113.40 16.03L113.40 16.27ZM126.31 16.27L119.78 16.27L119.78 16.03L120.22 15.89Q120.70 15.72 120.86 15.43Q121.03 15.14 121.03 14.66L121.03 14.66Q121.06 13.22 121.06 11.76Q121.06 10.30 121.06 8.83L121.06 8.83L121.06 7.87Q121.06 6.43 121.06 4.98Q121.06 3.53 121.03 2.09L121.03 2.09Q121.03 1.61 120.90 1.32Q120.77 1.03 120.31 0.86L120.31 0.86L119.78 0.67L119.78 0.43L131.40 0.43L131.57 4.42L131.33 4.42L129.96 1.90Q129.72 1.44 129.41 1.18Q129.10 0.91 128.54 0.91L128.54 0.91L124.68 0.91Q124.66 2.62 124.66 4.39Q124.66 6.17 124.66 7.92L124.66 7.92L127.15 7.92Q127.70 7.92 127.97 7.68Q128.23 7.44 128.47 6.98L128.47 6.98L128.98 6.07L129.22 6.07L129.22 10.27L128.98 10.27L128.45 9.36Q128.21 8.93 127.96 8.66Q127.70 8.40 127.15 8.40L127.15 8.40L124.66 8.40Q124.66 10.08 124.66 11.60Q124.66 13.13 124.68 14.59L124.68 14.59Q124.68 15.53 125.59 15.82L125.59 15.82L126.31 16.03L126.31 16.27ZM144.67 16.27L132.70 16.27L132.70 16.03L133.25 15.82Q133.66 15.65 133.81 15.37Q133.97 15.10 133.97 14.62L133.97 14.62L133.97 2.09Q133.97 1.61 133.84 1.33Q133.70 1.06 133.25 0.89L133.25 0.89L132.70 0.67L132.70 0.43L144.19 0.43L144.34 4.13L144.10 4.13L143.06 1.87Q142.85 1.44 142.61 1.18Q142.37 0.91 141.89 0.91L141.89 0.91L137.57 0.91L137.57 7.85L140.14 7.85Q140.62 7.85 140.87 7.60Q141.12 7.34 141.31 6.91L141.31 6.91L141.79 5.95L142.03 5.95L142.03 10.27L141.79 10.27L141.31 9.26Q141.10 8.83 140.86 8.58Q140.62 8.33 140.14 8.33L140.14 8.33L137.57 8.33L137.57 15.79L142.42 15.79Q142.90 15.79 143.16 15.54Q143.42 15.29 143.59 14.83L143.59 14.83L144.58 12.58L144.82 12.58L144.67 16.27ZM157.99 16.27L146.02 16.27L146.02 16.03L146.57 15.82Q146.98 15.65 147.13 15.37Q147.29 15.10 147.29 14.62L147.29 14.62L147.29 2.09Q147.29 1.61 147.16 1.33Q147.02 1.06 146.57 0.89L146.57 0.89L146.02 0.67L146.02 0.43L157.51 0.43L157.66 4.13L157.42 4.13L156.38 1.87Q156.17 1.44 155.93 1.18Q155.69 0.91 155.21 0.91L155.21 0.91L150.89 0.91L150.89 7.85L153.46 7.85Q153.94 7.85 154.19 7.60Q154.44 7.34 154.63 6.91L154.63 6.91L155.11 5.95L155.35 5.95L155.35 10.27L155.11 10.27L154.63 9.26Q154.42 8.83 154.18 8.58Q153.94 8.33 153.46 8.33L153.46 8.33L150.89 8.33L150.89 15.79L155.74 15.79Q156.22 15.79 156.48 15.54Q156.74 15.29 156.91 14.83L156.91 14.83L157.90 12.58L158.14 12.58L157.99 16.27Z" transform="translate(0, 6.149)"></path><line x1="167.136" y1="2%" x2="167.136" y2="98%" stroke="#af7ad5" stroke-linecap="round"></line><g fill="#f4a7e3" color="#f4a7e3" transform="translate(176.136 0) scale(0.5370371)"><svg width="50.0" height="54.0" x="0.0" y="0.0" viewBox="0 0 50 54"><path fill="currentColor" fill-rule="evenodd" d="M47.431 51.939l-7.898-1.25.029-8.411.053-2.538 7.816 12.199zM38.12 36.031l-.112 5.749-20.116-6.569.25-.822c.02-.036.028-.068.038-.101l7.247-23.331L38.12 36.031zM20.882 20.274l-3.644 11.72-8-16.075 11.644 4.355zm5.389-11.085l11.4-6.724-5.306 18.764-6.094-12.04zm7.147 14.098l3-10.628 7.335-2.946L33.698 23.84l-.28-.553zM9.879 20.714l-7.244-.649 4.779-4.306 2.465 4.955zm39.815 31.857L39.672 36.932l.019-1.014a.719.719 0 0 0-.087-.418l-5.102-10.075L46.573 8.461c.162-.22.2-.503.1-.763a.8.8 0 0 0-1.014-.437l-8.699 3.49 2.751-9.749a.81.81 0 0 0-.075-.617.801.801 0 0 0-.488-.361.768.768 0 0 0-.583.083l-13.72 8.1a.758.758 0 0 0-.352.462l-3.142 10.107-13.364-5a.78.78 0 0 0-.694.023 1.516 1.516 0 0 0-.169.119L.273 20.1a.775.775 0 0 0-.271.546.77.77 0 0 0 .205.576.816.816 0 0 0 .542.26l9.961.888 5.873 11.795-.412 1.329a.834.834 0 0 0 .043.584.77.77 0 0 0 .46.402L38 43.444l-.029 7.939a.79.79 0 0 0 .661.777l10.225 1.614c.071.019.136.019.184.019.138 0 .28-.038.45-.137.331-.274.418-.739.203-1.085z"></path></svg></g></svg>